<?xml version="1.0" encoding="UTF-8"?>
<svg xmlns="http://www.w3.org/2000/svg" xmlns:xlink="http://www.w3.org/1999/xlink" id="Layer_1" data-name="Layer 1" viewBox="0 0 236 236">
  <defs>
    <style>.cls-1{fill:none;stroke-miterlimit:10;stroke-width:2.08px;stroke:url(#linear-gradient);}.cls-2{fill:url(#linear-gradient-2);}.cls-3{fill:url(#linear-gradient-3);}.cls-4{fill:#918780;}</style>
    <linearGradient id="linear-gradient" x1="9.43" y1="120" x2="226.57" y2="120" gradientTransform="matrix(1, 0, 0, -1, 0, 238)" gradientUnits="userSpaceOnUse">
      <stop offset="0" stop-color="#474142"></stop>
      <stop offset="0.24" stop-color="#e5c796"></stop>
      <stop offset="1" stop-color="#474142"></stop>
    </linearGradient>
    <linearGradient id="linear-gradient-2" x1="104.53" y1="115.98" x2="40.63" y2="209.9" gradientTransform="matrix(1, 0, 0, -1, 0, 238)" gradientUnits="userSpaceOnUse">
      <stop offset="0" stop-color="#e5c796"></stop>
      <stop offset="0.16" stop-color="#ffd885"></stop>
      <stop offset="1" stop-color="#231f20"></stop>
    </linearGradient>
    <linearGradient id="linear-gradient-3" x1="126.56" y1="153.38" x2="177.64" y2="72.14" xlink:href="#linear-gradient-2"></linearGradient>
  </defs>
  <path class="cls-1" d="M225.27,10.73H10.73V225.27H225.27Z"></path>
  <path class="cls-2" d="M115.34,120.41v-55H73.24l.21,7,33.19-.06a1.9,1.9,0,0,1,1.75,2v45.06c0,1.68-.12,8.18-1.34,12.38a20.42,20.42,0,0,1-1,2.34c-3.42,7.23-11.87,15.38-32.63,14.72a26.24,26.24,0,0,0,12.35,1.66l-.74.11s26.07-1,29.93-25.31A21.44,21.44,0,0,0,115.34,120.41Z"></path>
  <path class="cls-3" d="M120.87,95.62v55h41.89v-7l-33.19.05a1.9,1.9,0,0,1-1.74-2V96.6c0-1.68.11-8.16,1.34-12.38.27-.76.59-1.54,1-2.35,3.44-7.22,11.89-15.38,32.63-14.72a26.06,26.06,0,0,0-12.35-1.64l.74-.13s-26.07,1-29.93,25.32a20.82,20.82,0,0,0-.35,4.91Z"></path>
  <path class="cls-4" d="M50.13,165.38H51v5.73a3.22,3.22,0,0,1-.16,1.19,1.5,1.5,0,0,1-.53.62,1.54,1.54,0,0,1-.88.23,1,1,0,0,1-.26,0l-.15-.77h.21a1.25,1.25,0,0,0,.54-.09A.69.69,0,0,0,50,172a2.61,2.61,0,0,0,.11-.94v-5.63Z"></path>
  <path class="cls-4" d="M55.71,165.35h.58l2.59,5.84H58l-.76-1.72H54.81l-.72,1.72h-.85l2.48-5.84Zm1.22,3.39L56,166.63l-.87,2.11Z"></path>
  <path class="cls-4" d="M65.73,165.38h.79v5.81h-.71L62,166.72v4.47h-.78v-5.81h.67l3.89,4.51Z"></path>
  <path class="cls-4" d="M69.4,165.38h3.27v.74H70.22v1.77h2.36v.75H70.22v1.8h2.53v.75H69.4v-5.8Z"></path>
  <path class="cls-4" d="M74.77,165.36h4.82v.75h-2v5.08h-.83v-5.08h-2Z"></path>
  <path class="cls-4" d="M86,165.38h.83v5.05h2.6v.76H86Z"></path>
  <path class="cls-4" d="M91.77,165.38H95v.74H92.6v1.77H95v.75H92.6v1.8h2.52v.75H91.77v-5.8Z"></path>
  <path class="cls-4" d="M97.63,165.38h3.28v.74H98.46v1.77h2.36v.75H98.46v1.8H101v.75H97.63v-5.8Z"></path>
  <path class="cls-4" d="M107.49,171.18v-5.8h1.94a4,4,0,0,1,1.86.35,2.68,2.68,0,0,1,1.09,1.05,3,3,0,0,1,.18,2.61,2.88,2.88,0,0,1-1.62,1.57,3.59,3.59,0,0,1-.6.18c-.18,0-.53,0-1,0h-1.8Zm1.85-5.07h-1v4.32h1.06a4.14,4.14,0,0,0,1-.09,2.12,2.12,0,0,0,.57-.21,1.67,1.67,0,0,0,.42-.32,2.21,2.21,0,0,0,.61-1.58,2,2,0,0,0-.63-1.53,1.93,1.93,0,0,0-.52-.36,2.93,2.93,0,0,0-.57-.19,5.5,5.5,0,0,0-.86-.05Z"></path>
  <path class="cls-4" d="M115.46,165.38h3.27v.74h-2.44v1.77h2.36v.75h-2.36v1.8h2.52v.75h-3.35v-5.8Z"></path>
  <path class="cls-4" d="M122.75,168.75l-.63-.38a2.84,2.84,0,0,1-.84-.72,1.49,1.49,0,0,1,.23-1.92,1.74,1.74,0,0,1,1.23-.43,2.3,2.3,0,0,1,1.33.41v.94a1.91,1.91,0,0,0-1.34-.6,1.09,1.09,0,0,0-.67.19.55.55,0,0,0-.26.48.74.74,0,0,0,.19.49,2.39,2.39,0,0,0,.61.48l.63.38a1.87,1.87,0,0,1,1,1.61,1.48,1.48,0,0,1-.46,1.14,1.73,1.73,0,0,1-1.21.44,2.47,2.47,0,0,1-1.55-.53v-1.06a2,2,0,0,0,1.54.86,1,1,0,0,0,.65-.21.67.67,0,0,0,.27-.55c0-.35-.25-.69-.77-1Z"></path>
  <path class="cls-4" d="M126.84,165.38h.83v5.81h-.83Z"></path>
  <path class="cls-4" d="M133.71,168.33h1.93v2.47a5.23,5.23,0,0,1-2.12.46,3.1,3.1,0,0,1-2.29-.84,2.76,2.76,0,0,1-.86-2.07,2.85,2.85,0,0,1,.89-2.16,3,3,0,0,1,2.22-.86,4,4,0,0,1,.93.1,7.18,7.18,0,0,1,1.11.39v.85a4,4,0,0,0-2.05-.61,2.14,2.14,0,0,0-1.59.64,2.17,2.17,0,0,0-.65,1.6,2.11,2.11,0,0,0,.65,1.61,2.28,2.28,0,0,0,1.67.63,3.87,3.87,0,0,0,1.18-.22l.07,0v-1.21h-1.11v-.75Z"></path>
  <path class="cls-4" d="M143.06,165.38h.79v5.81h-.71l-3.86-4.47v4.47h-.77v-5.81h.66l3.89,4.51Z"></path>
  <path class="cls-4" d="M152.14,168.75l-.63-.38a2.72,2.72,0,0,1-.84-.72,1.49,1.49,0,0,1,.23-1.92,1.74,1.74,0,0,1,1.23-.43,2.3,2.3,0,0,1,1.33.41v.94a1.93,1.93,0,0,0-1.35-.6,1.07,1.07,0,0,0-.66.19.55.55,0,0,0-.26.48.78.78,0,0,0,.18.49,2.67,2.67,0,0,0,.62.48l.63.38a1.87,1.87,0,0,1,1,1.61,1.48,1.48,0,0,1-.46,1.14,1.73,1.73,0,0,1-1.21.44,2.47,2.47,0,0,1-1.55-.53v-1.06a2,2,0,0,0,1.54.86,1,1,0,0,0,.65-.21.67.67,0,0,0,.27-.55c0-.35-.26-.69-.77-1Z"></path>
  <path class="cls-4" d="M155.73,165.36h4.82v.75h-2v5.08h-.83v-5.08h-2Z"></path>
  <path class="cls-4" d="M167,165.38h.83v3.29a4.07,4.07,0,0,1-.1,1,2.57,2.57,0,0,1-.24.57,2,2,0,0,1-.35.41,2.67,2.67,0,0,1-1.8.59,2.28,2.28,0,0,1-2.16-1,2.33,2.33,0,0,1-.24-.55,4.46,4.46,0,0,1-.08-1v-3.28h.82v3.29a2.48,2.48,0,0,0,.19,1.14,1.44,1.44,0,0,0,.57.52,1.91,1.91,0,0,0,.89.19,1.76,1.76,0,0,0,1.19-.39,1.14,1.14,0,0,0,.35-.5,2.7,2.7,0,0,0,.12-1v-3.28Z"></path>
  <path class="cls-4" d="M170.59,171.18v-5.8h1.95a4,4,0,0,1,1.86.35,2.74,2.74,0,0,1,1.09,1.05,3,3,0,0,1,.4,1.5,2.78,2.78,0,0,1-.22,1.11,2.88,2.88,0,0,1-1.62,1.57,3.42,3.42,0,0,1-.61.18,10.12,10.12,0,0,1-1,0h-1.81Zm1.86-5.07h-1v4.32h1.06a4,4,0,0,0,1-.09,2.07,2.07,0,0,0,.58-.21,1.67,1.67,0,0,0,.42-.32,2.21,2.21,0,0,0,.61-1.58,2,2,0,0,0-.63-1.53,1.93,1.93,0,0,0-.52-.36,2.38,2.38,0,0,0-.57-.19,5.5,5.5,0,0,0-.86-.05Z"></path>
  <path class="cls-4" d="M178.58,165.38h.83v5.81h-.83Z"></path>
  <path class="cls-4" d="M185.15,165.3a3.06,3.06,0,0,1,2.22.85,2.83,2.83,0,0,1,.89,2.13,2.73,2.73,0,0,1-.91,2.12,3.19,3.19,0,0,1-2.26.85,2.92,2.92,0,0,1-2.17-.85,2.81,2.81,0,0,1-.86-2.1,2.89,2.89,0,0,1,.88-2.16,3,3,0,0,1,2.21-.85Zm0,.8a2.22,2.22,0,0,0-1.63.62,2.09,2.09,0,0,0-.64,1.59,2,2,0,0,0,.64,1.56,2.21,2.21,0,0,0,1.61.62,2.18,2.18,0,0,0,1.6-.63,2.14,2.14,0,0,0,.65-1.58,2.06,2.06,0,0,0-.65-1.55A2.15,2.15,0,0,0,185.18,166.1Z"></path>
</svg>
